<svg width="140" height="64" viewBox="0 0 140 64" fill="none" xmlns="http://www.w3.org/2000/svg">
<path d="M28.2345 3.66L11.5545 20.34C9.21084 22.6849 7.89435 25.8646 7.89453 29.18L7.89453 59C7.89453 61.76 10.1345 64 12.8945 64H42.7145C46.0345 64 49.2045 62.68 51.5545 60.34L68.2345 43.66C70.5745 41.32 71.8945 38.14 71.8945 34.82V5C71.8945 2.24 69.6545 0 66.8945 0H37.0745C33.7545 0 30.5845 1.32 28.2345 3.66Z" fill="url(#paint0_linear_103_115)"/>
<path d="M0 28.0001L2.78436 17.3022H4.55756L7.32727 28.0001H5.99371L5.29029 25.1571H2.05164L1.34822 28.0001H0ZM2.31542 24.0433H5.01186L4.1912 20.7461C4.03489 20.1208 3.91276 19.5981 3.82484 19.178C3.73691 18.7579 3.68318 18.4844 3.66364 18.3574C3.6441 18.4844 3.59036 18.7579 3.50244 19.178C3.41451 19.5981 3.29239 20.1159 3.13607 20.7314L2.31542 24.0433Z" fill="black"/>
<path d="M9.16802 28.0001V17.3022H10.8973L12.011 20.7607C12.1185 21.0733 12.2162 21.386 12.3041 21.6986C12.392 22.0015 12.4555 22.2359 12.4946 22.402C12.5435 22.2359 12.607 22.0015 12.6851 21.6986C12.7633 21.386 12.8512 21.0685 12.9489 20.7461L14.004 17.3022H15.7333V28.0001H14.4437V24.1166C14.4437 23.6867 14.4583 23.1983 14.4876 22.6512C14.5169 22.1041 14.556 21.5472 14.6049 20.9805C14.6537 20.4041 14.7026 19.857 14.7514 19.3392C14.81 18.8117 14.8589 18.3525 14.8979 17.9617L13.1687 23.3106H11.7765L10.0326 17.9617C10.0815 18.3427 10.1303 18.7872 10.1792 19.2953C10.228 19.7935 10.272 20.326 10.3111 20.8926C10.3502 21.4495 10.3843 22.0064 10.4137 22.5632C10.443 23.1201 10.4576 23.6379 10.4576 24.1166V28.0001H9.16802Z" fill="black"/>
<path d="M18.38 28.0001V26.7984H20.5635V18.5039H18.38V17.3022H24.0953V18.5039H21.9118V26.7984H24.0953V28.0001H18.38Z" fill="black"/>
<path d="M26.9472 28.0001V17.3022H28.7057L31.9737 26.4613C31.9542 26.2171 31.9297 25.9191 31.9004 25.5674C31.8809 25.2059 31.8614 24.8298 31.8418 24.439C31.832 24.0385 31.8272 23.6623 31.8272 23.3106V17.3022H33.1021V28.0001H31.3436L28.0902 18.841C28.1098 19.0754 28.1293 19.3734 28.1489 19.7349C28.1684 20.0866 28.1831 20.4627 28.1928 20.8633C28.2124 21.2541 28.2221 21.6302 28.2221 21.9917V28.0001H26.9472Z" fill="black"/>
<path d="M35.8807 28.0001V17.3022H42.0356V18.5039H37.185V21.8158H41.5227V23.0029H37.185V26.7984H42.0356V28.0001H35.8807Z" fill="black"/>
<path d="M16.9223 53V31.2927H21.3827V39.708H23.494L27.0623 31.2927H31.9093L27.4488 41.6706L32.0877 53H27.1812L23.494 43.8116H21.3827V53H16.9223ZM33.5629 53L38.8856 31.2927H44.5355L49.9177 53H45.3681L44.3273 48.0935H39.1532L38.1125 53H33.5629ZM39.8966 44.5252H43.5542L42.5134 39.2917C42.3747 38.5384 42.226 37.795 42.0674 37.0615C41.9286 36.3082 41.8196 35.7233 41.7403 35.307C41.661 35.7233 41.552 36.2982 41.4132 37.0317C41.2942 37.7652 41.1555 38.5086 40.9969 39.2619L39.8966 44.5252ZM52.5823 53V31.2927H59.5703C61.1166 31.2927 62.4547 31.5603 63.5847 32.0955C64.7147 32.6308 65.5869 33.394 66.2015 34.3852C66.8358 35.3764 67.153 36.546 67.153 37.8941C67.153 39.3016 66.8061 40.5604 66.1122 41.6706C65.4382 42.7807 64.5164 43.5836 63.3468 44.0792L67.4504 53H62.6034L59.0945 44.7928H57.013V53H52.5823ZM57.013 40.9272H59.5703C60.5615 40.9272 61.3247 40.6794 61.86 40.1838C62.4151 39.6882 62.6926 38.9943 62.6926 38.1022C62.6926 37.1705 62.4151 36.4469 61.86 35.9315C61.3247 35.4161 60.5615 35.1584 59.5703 35.1584H57.013V40.9272ZM69.7284 53V31.2927H74.7538L76.7461 38.132C76.9642 38.8456 77.1228 39.4701 77.2219 40.0053C77.3409 40.5406 77.4103 40.9172 77.4301 41.1353C77.4499 40.9172 77.5094 40.5406 77.6085 40.0053C77.7274 39.4701 77.886 38.8456 78.0843 38.132L80.0469 31.2927H85.0722V53H80.9984V47.0528C80.9984 45.9625 81.0182 44.8226 81.0579 43.6331C81.1174 42.4239 81.1867 41.2245 81.266 40.0351C81.3453 38.8456 81.4345 37.7355 81.5337 36.7046C81.6328 35.654 81.722 34.7421 81.8013 33.9689L79.3034 43.7818H75.527L72.9102 33.9689C73.0093 34.7024 73.1084 35.5846 73.2076 36.6154C73.3067 37.6265 73.3959 38.7267 73.4752 39.9161C73.5743 41.0857 73.6536 42.2851 73.7131 43.5142C73.7725 44.7433 73.8023 45.9228 73.8023 47.0528V53H69.7284ZM95.2304 53.2974C93.7832 53.2974 92.5244 53.0297 91.4539 52.4945C90.3834 51.9394 89.5508 51.1762 88.9561 50.2048C88.3812 49.2136 88.0937 48.0638 88.0937 46.7554V37.5372C88.0937 36.2289 88.3812 35.089 88.9561 34.1176C89.5508 33.1264 90.3834 32.3632 91.4539 31.8279C92.5244 31.2728 93.7832 30.9953 95.2304 30.9953C96.6973 30.9953 97.9562 31.2728 99.0069 31.8279C100.077 32.3632 100.9 33.1264 101.475 34.1176C102.07 35.089 102.367 36.2289 102.367 37.5372V46.7554C102.367 48.0638 102.07 49.2136 101.475 50.2048C100.9 51.1762 100.077 51.9394 99.0069 52.4945C97.9562 53.0297 96.6973 53.2974 95.2304 53.2974ZM95.2304 49.4317C96.1225 49.4317 96.7866 49.2037 97.2227 48.7477C97.6786 48.272 97.9066 47.6079 97.9066 46.7554V37.5372C97.9066 36.665 97.6886 36.0009 97.2524 35.5449C96.8163 35.089 96.1423 34.861 95.2304 34.861C94.3185 34.861 93.6444 35.089 93.2083 35.5449C92.7722 36.0009 92.5541 36.665 92.5541 37.5372V46.7554C92.5541 47.6079 92.7722 48.272 93.2083 48.7477C93.6643 49.2037 94.3383 49.4317 95.2304 49.4317ZM113.06 53.2974C110.86 53.2974 109.115 52.7026 107.827 51.5132C106.558 50.3238 105.924 48.6982 105.924 46.6365V31.2927H110.384V46.6067C110.384 47.5187 110.612 48.2224 111.068 48.718C111.544 49.1938 112.208 49.4317 113.06 49.4317C113.893 49.4317 114.547 49.1938 115.023 48.718C115.499 48.2224 115.737 47.5187 115.737 46.6067V31.2927H120.197V46.6365C120.197 48.6784 119.553 50.3039 118.264 51.5132C116.995 52.7026 115.261 53.2974 113.06 53.2974ZM130.89 53.2974C129.364 53.2974 128.036 53.0396 126.906 52.5242C125.776 52.0088 124.904 51.2852 124.289 50.3535C123.674 49.4218 123.367 48.3215 123.367 47.0528H127.828C127.828 47.7863 128.105 48.3711 128.66 48.8072C129.235 49.2235 130.008 49.4317 130.98 49.4317C131.911 49.4317 132.635 49.2235 133.15 48.8072C133.686 48.3909 133.953 47.816 133.953 47.0825C133.953 46.4482 133.755 45.903 133.359 45.447C132.962 44.9911 132.407 44.6838 131.693 44.5252L129.493 44.0197C127.649 43.5836 126.212 42.7807 125.181 41.6111C124.17 40.4216 123.665 38.9745 123.665 37.2696C123.665 36.0009 123.952 34.9006 124.527 33.9689C125.122 33.0174 125.954 32.2839 127.025 31.7684C128.095 31.253 129.364 30.9953 130.831 30.9953C133.051 30.9953 134.806 31.5504 136.094 32.6605C137.403 33.7508 138.057 35.2277 138.057 37.0912H133.596C133.596 36.3974 133.349 35.8522 132.853 35.4557C132.377 35.0592 131.683 34.861 130.771 34.861C129.919 34.861 129.265 35.0592 128.809 35.4557C128.353 35.8324 128.125 36.3775 128.125 37.0912C128.125 37.7256 128.303 38.2707 128.66 38.7267C129.037 39.1628 129.562 39.4602 130.236 39.6188L132.556 40.154C134.479 40.5901 135.936 41.3831 136.927 42.5329C137.918 43.6629 138.414 45.11 138.414 46.8744C138.414 48.1431 138.096 49.2632 137.462 50.2345C136.848 51.2059 135.975 51.9592 134.845 52.4945C133.735 53.0297 132.417 53.2974 130.89 53.2974Z" fill="black"/>
<path d="M0.328125 15.0001V4.30225H2.05736L3.17111 7.76072C3.27857 8.07335 3.37627 8.38598 3.4642 8.69861C3.55213 9.00147 3.61563 9.23594 3.65471 9.40203C3.70356 9.23594 3.76706 9.00147 3.84522 8.69861C3.92337 8.38598 4.0113 8.06846 4.109 7.74606L5.16413 4.30225H6.89336V15.0001H5.60376V11.1166C5.60376 10.6867 5.61842 10.1983 5.64773 9.65116C5.67703 9.10405 5.71611 8.54718 5.76496 7.98054C5.81381 7.40412 5.86266 6.85702 5.91151 6.33923C5.97013 5.81166 6.01897 5.35249 6.05805 4.9617L4.32882 10.3106H2.93663L1.19274 4.9617C1.24159 5.34272 1.29044 5.78724 1.33929 6.29526C1.38814 6.79352 1.4321 7.32597 1.47118 7.89261C1.51026 8.44948 1.54445 9.00636 1.57376 9.56323C1.60307 10.1201 1.61773 10.6379 1.61773 11.1166V15.0001H0.328125Z" fill="black"/>
<path d="M9.46684 15.0001V4.30225H15.6217V5.50392H10.7711V8.81585H15.1088V10.0029H10.7711V13.7984H15.6217V15.0001H9.46684Z" fill="black"/>
<path d="M18.1366 15.0001V4.30225H20.9063C21.6 4.30225 22.1959 4.43414 22.6942 4.69792C23.2022 4.9617 23.593 5.33295 23.8665 5.81166C24.1499 6.29038 24.2915 6.85702 24.2915 7.51159V11.7761C24.2915 12.4306 24.1499 13.0022 23.8665 13.4906C23.593 13.9694 23.2022 14.3406 22.6942 14.6044C22.1959 14.8682 21.6 15.0001 20.9063 15.0001H18.1366ZM19.4555 13.8277H20.9063C21.5511 13.8277 22.0543 13.647 22.4157 13.2855C22.787 12.924 22.9726 12.4209 22.9726 11.7761V7.51159C22.9726 6.87656 22.787 6.37831 22.4157 6.01683C22.0543 5.65535 21.5511 5.47461 20.9063 5.47461H19.4555V13.8277Z" fill="black"/>
<path d="M54.2804 7.82621L49.1715 12.4996L54.2804 17.1738C54.3254 17.215 54.3621 17.265 54.3885 17.3209C54.4148 17.3768 54.4301 17.4374 54.4337 17.4994C54.4372 17.5614 54.4288 17.6235 54.4091 17.6822C54.3893 17.7408 54.3585 17.7949 54.3185 17.8413C54.2784 17.8877 54.2299 17.9255 54.1756 17.9526C54.1214 17.9797 54.0625 17.9955 54.0023 17.9992C53.9421 18.0028 53.8818 17.9942 53.8249 17.9739C53.7679 17.9535 53.7154 17.9218 53.6704 17.8806L48.1803 12.8546C48.1316 12.8104 48.0926 12.756 48.0659 12.695C48.0392 12.6341 48.0254 12.568 48.0254 12.5012C48.0254 12.4343 48.0392 12.3682 48.0659 12.3073C48.0926 12.2464 48.1316 12.192 48.1803 12.1478L53.6704 7.12179C53.7614 7.03848 53.8808 6.99581 54.0023 7.00317C54.1239 7.01054 54.2376 7.06733 54.3185 7.16105C54.3994 7.25478 54.4408 7.37776 54.4337 7.50294C54.4265 7.62813 54.3714 7.74526 54.2804 7.82857V7.82621ZM65.8705 12.1454L60.3804 7.11943C60.2894 7.03612 60.17 6.99345 60.0485 7.00082C59.9269 7.00818 59.8132 7.06497 59.7323 7.1587C59.6514 7.25242 59.61 7.3754 59.6171 7.50059C59.6243 7.62577 59.6794 7.7429 59.7704 7.82621L64.8792 12.4996L59.7704 17.1738C59.7254 17.215 59.6886 17.265 59.6623 17.3209C59.636 17.3768 59.6207 17.4374 59.6171 17.4994C59.6136 17.5614 59.6219 17.6235 59.6417 17.6822C59.6615 17.7408 59.6922 17.7949 59.7323 17.8413C59.7724 17.8877 59.8209 17.9255 59.8751 17.9526C59.9294 17.9797 59.9883 17.9955 60.0485 17.9992C60.17 18.0065 60.2894 17.9639 60.3804 17.8806L65.8705 12.8546C65.9192 12.8104 65.9582 12.756 65.9849 12.695C66.0116 12.6341 66.0254 12.568 66.0254 12.5012C66.0254 12.4343 66.0116 12.3682 65.9849 12.3073C65.9582 12.2464 65.9192 12.192 65.8705 12.1478V12.1454Z" fill="black"/>
<defs>
<linearGradient id="paint0_linear_103_115" x1="8.74453" y1="62.72" x2="70.5145" y2="1.81" gradientUnits="userSpaceOnUse">
<stop stop-color="#FE4300"/>
<stop offset="0.99" stop-color="#5EDFFF"/>
</linearGradient>
</defs>
</svg>
